<?xml version="1.0" encoding="utf-8"?>
<!-- Generator: Adobe Illustrator 24.1.2, SVG Export Plug-In . SVG Version: 6.00 Build 0)  -->
<svg version="1.1" id="Capa_1" xmlns="http://www.w3.org/2000/svg" xmlns:xlink="http://www.w3.org/1999/xlink" x="0px" y="0px"
	 viewBox="0 0 422.8 422.8" style="enable-background:new 0 0 422.8 422.8;" xml:space="preserve">
<path d="M219.6,67.2h-80.3c-8.7,0-15.7,7.1-15.8,15.8l-0.2,88.3v22.2l0.1,22.2v111v22.2v56.8c0,8.7,7.1,15.7,15.8,15.8h80.5
	c8.7,0,15.7-7.1,15.8-15.8V83C235.3,74.3,228.3,67.3,219.6,67.2z M228,83v322.7c-0.1,4.5-3.7,8.1-8.2,8.2h-80.5
	c-4.5,0-8.2-3.7-8.2-8.2l-0.1-53.1h41.4c2.1,0.1,3.8-1.5,3.9-3.6s-1.5-3.8-3.6-3.9c-0.1,0-0.2,0-0.3,0H131v-14.7h18.8
	c2.1,0.1,3.8-1.5,3.9-3.6c0.1-2.1-1.5-3.8-3.6-3.9c-0.1,0-0.2,0-0.3,0h-18.9v-14.7h18.8c2.1-0.1,3.7-1.9,3.6-3.9
	c-0.1-1.9-1.6-3.5-3.6-3.6h-18.8V286h41.4c2.1-0.1,3.7-1.9,3.6-3.9c-0.1-1.9-1.6-3.5-3.6-3.6h-41.4v-14.7h18.8
	c2.1,0.1,3.8-1.5,3.9-3.6c0.1-2.1-1.5-3.8-3.6-3.9c-0.1,0-0.2,0-0.3,0h-18.8v-14.7h18.8c2.1-0.1,3.7-1.9,3.6-3.9
	c-0.1-1.9-1.6-3.5-3.6-3.6L131,234v-14.7h41.4c2.1-0.3,3.5-2.1,3.3-4.2c-0.2-1.7-1.6-3.1-3.3-3.3h-41.5v-14.7h18.8
	c2.1,0.1,3.8-1.5,3.9-3.6c0.1-2.1-1.5-3.8-3.6-3.9c-0.1,0-0.2,0-0.3,0h-18.8v-14.7h18.8c2.1-0.1,3.7-1.9,3.6-3.9
	c-0.1-1.9-1.6-3.5-3.6-3.6h-18.8v-14.7h41.4c2.1-0.1,3.7-1.9,3.6-3.9c-0.1-1.9-1.6-3.5-3.6-3.6h-41.4v-14.7h18.8
	c2.1-0.1,3.7-1.9,3.6-3.9c-0.1-1.9-1.6-3.5-3.6-3.6h-18.8v-14.7h41.4c2.1-0.1,3.7-1.9,3.6-3.9c-0.1-1.9-1.6-3.5-3.6-3.6h-41.4V83
	c0.1-4.5,3.7-8.1,8.2-8.2h80.5c4.5,0,8.2,3.7,8.2,8.2H228z"/>
</svg>
